<svg xmlns="http://www.w3.org/2000/svg">
    <symbol id = 'home' viewBox = "0 0 20 20">
        <path d="M17.5 16.6667C17.5 16.8878 17.4122 17.0997 17.2559 17.256C17.0996 17.4123 16.8877 17.5001 16.6667 17.5001H3.33333C3.11232 17.5001 2.90036 17.4123 2.74408 17.256C2.5878 17.0997 2.5 16.8878 2.5 16.6667V7.90842C2.49991 7.78143 2.52885 7.6561 2.5846 7.542C2.64035 7.4279 2.72143 7.32805 2.82167 7.25008L9.48833 2.06425C9.63462 1.95045 9.81467 1.88867 10 1.88867C10.1853 1.88867 10.3654 1.95045 10.5117 2.06425L17.1783 7.25008C17.2786 7.32805 17.3597 7.4279 17.4154 7.542C17.4712 7.6561 17.5001 7.78143 17.5 7.90842V16.6667ZM15.8333 15.8334V8.31508L10 3.77842L4.16667 8.31508V15.8334H15.8333Z"/>
    </symbol>

    <symbol id = 'car' viewBox = "0 0 20 20">
        <path d="M15.8334 16.6668H4.16675V17.5002C4.16675 17.7212 4.07895 17.9331 3.92267 18.0894C3.76639 18.2457 3.55443 18.3335 3.33341 18.3335H2.50008C2.27907 18.3335 2.06711 18.2457 1.91083 18.0894C1.75455 17.9331 1.66675 17.7212 1.66675 17.5002V9.16683L3.73341 4.3435C3.86202 4.0435 4.07588 3.78786 4.34846 3.60831C4.62104 3.42876 4.94035 3.33321 5.26675 3.3335H14.7334C15.0595 3.33353 15.3785 3.42924 15.6507 3.60877C15.923 3.7883 16.1366 4.04376 16.2651 4.3435L18.3334 9.16683V17.5002C18.3334 17.7212 18.2456 17.9331 18.0893 18.0894C17.9331 18.2457 17.7211 18.3335 17.5001 18.3335H16.6667C16.4457 18.3335 16.2338 18.2457 16.0775 18.0894C15.9212 17.9331 15.8334 17.7212 15.8334 17.5002V16.6668ZM16.6667 10.8335H3.33341V15.0002H16.6667V10.8335ZM3.48008 9.16683H16.5201L14.7342 5.00016H5.26675L3.48008 9.16683ZM5.41675 14.1668C5.08523 14.1668 4.76728 14.0351 4.53286 13.8007C4.29844 13.5663 4.16675 13.2484 4.16675 12.9168C4.16675 12.5853 4.29844 12.2674 4.53286 12.0329C4.76728 11.7985 5.08523 11.6668 5.41675 11.6668C5.74827 11.6668 6.06621 11.7985 6.30063 12.0329C6.53505 12.2674 6.66675 12.5853 6.66675 12.9168C6.66675 13.2484 6.53505 13.5663 6.30063 13.8007C6.06621 14.0351 5.74827 14.1668 5.41675 14.1668ZM14.5834 14.1668C14.2519 14.1668 13.934 14.0351 13.6995 13.8007C13.4651 13.5663 13.3334 13.2484 13.3334 12.9168C13.3334 12.5853 13.4651 12.2674 13.6995 12.0329C13.934 11.7985 14.2519 11.6668 14.5834 11.6668C14.9149 11.6668 15.2329 11.7985 15.4673 12.0329C15.7017 12.2674 15.8334 12.5853 15.8334 12.9168C15.8334 13.2484 15.7017 13.5663 15.4673 13.8007C15.2329 14.0351 14.9149 14.1668 14.5834 14.1668Z"/>
    </symbol>

    <symbol id = 'logout' viewBox = "0 0 20 20">
        <path d="M4.16659 18.3332C3.94557 18.3332 3.73361 18.2454 3.57733 18.0891C3.42105 17.9328 3.33325 17.7209 3.33325 17.4998V2.49984C3.33325 2.27882 3.42105 2.06686 3.57733 1.91058C3.73361 1.7543 3.94557 1.6665 4.16659 1.6665H15.8333C16.0543 1.6665 16.2662 1.7543 16.4225 1.91058C16.5788 2.06686 16.6666 2.27882 16.6666 2.49984V4.99984H14.9999V3.33317H4.99992V16.6665H14.9999V14.9998H16.6666V17.4998C16.6666 17.7209 16.5788 17.9328 16.4225 18.0891C16.2662 18.2454 16.0543 18.3332 15.8333 18.3332H4.16659ZM14.9999 13.3332V10.8332H9.16659V9.1665H14.9999V6.6665L19.1666 9.99984L14.9999 13.3332Z" />
    </symbol>

    <symbol id = 'favorite' viewBox = "0 0 20 20">
        <path d="M10.0009 3.77397C10.9532 2.92202 12.1955 2.467 13.4728 2.50233C14.7501 2.53766 15.9654 3.06068 16.8692 3.96397C17.772 4.86663 18.2953 6.08043 18.3319 7.35655C18.3684 8.63266 17.9155 9.87444 17.0659 10.8273L9.99919 17.904L2.93419 10.8273C2.08356 9.87394 1.63019 8.63111 1.66713 7.35396C1.70408 6.07682 2.22854 4.86227 3.13285 3.95967C4.03716 3.05706 5.25269 2.5349 6.5299 2.50036C7.80712 2.46583 9.04909 2.92156 10.0009 3.77397ZM15.6892 5.14147C15.087 4.54028 14.2776 4.19216 13.427 4.16846C12.5764 4.14475 11.7489 4.44725 11.1142 5.01397L10.0017 6.01231L8.88835 5.01481C8.25641 4.44972 7.4329 4.14664 6.58541 4.16724C5.73791 4.18785 4.9301 4.53059 4.32637 5.12572C3.72264 5.72085 3.36834 6.52366 3.33558 7.37077C3.30282 8.21789 3.59405 9.04566 4.15002 9.68564L10 15.5448L15.85 9.68647C16.4036 9.04931 16.6949 8.22584 16.6651 7.38229C16.6352 6.53873 16.2865 5.73791 15.6892 5.14147Z"/>
    </symbol>

    <symbol id = 'alert' viewBox = "0 0 20 20">
        <path d="M10.7218 2.49964L18.6602 16.2496C18.7333 16.3763 18.7718 16.52 18.7718 16.6663C18.7718 16.8126 18.7333 16.9563 18.6602 17.083C18.587 17.2096 18.4818 17.3148 18.3552 17.388C18.2285 17.4611 18.0848 17.4996 17.9385 17.4996H2.06183C1.91555 17.4996 1.77185 17.4611 1.64517 17.388C1.51849 17.3148 1.41329 17.2096 1.34016 17.083C1.26702 16.9563 1.22851 16.8126 1.22852 16.6663C1.22852 16.52 1.26702 16.3763 1.34016 16.2496L9.27849 2.49964C9.35164 2.37296 9.45683 2.26778 9.58351 2.19464C9.71019 2.12151 9.85389 2.08301 10.0002 2.08301C10.1464 2.08301 10.2901 2.12151 10.4168 2.19464C10.5435 2.26778 10.6487 2.37296 10.7218 2.49964ZM3.50516 15.833H16.4952L10.0002 4.58297L3.50516 15.833ZM9.16683 13.333H10.8335V14.9996H9.16683V13.333ZM9.16683 7.49964H10.8335V11.6663H9.16683V7.49964Z"/>
    </symbol>

    <symbol id = 'garage' viewBox = "0 0 20 20">
        <path d="M17.5002 16.667H19.1668V18.3337H0.833496V16.667H2.50016V2.50033C2.50016 2.27931 2.58796 2.06735 2.74424 1.91107C2.90052 1.75479 3.11248 1.66699 3.3335 1.66699H16.6668C16.8878 1.66699 17.0998 1.75479 17.2561 1.91107C17.4124 2.06735 17.5002 2.27931 17.5002 2.50033V16.667ZM15.8335 16.667V3.33366H4.16683V16.667H15.8335ZM6.66683 9.16699H9.16683V10.8337H6.66683V9.16699ZM6.66683 5.83366H9.16683V7.50033H6.66683V5.83366ZM6.66683 12.5003H9.16683V14.167H6.66683V12.5003ZM10.8335 12.5003H13.3335V14.167H10.8335V12.5003ZM10.8335 9.16699H13.3335V10.8337H10.8335V9.16699ZM10.8335 5.83366H13.3335V7.50033H10.8335V5.83366Z"/>
    </symbol>

    <symbol id = 'group' viewBox = "0 0 20 20">
        <path d="M1.6665 18.333C1.6665 16.5649 2.36888 14.8692 3.61913 13.619C4.86937 12.3687 6.56506 11.6663 8.33317 11.6663C10.1013 11.6663 11.797 12.3687 13.0472 13.619C14.2975 14.8692 14.9998 16.5649 14.9998 18.333H13.3332C13.3332 17.0069 12.8064 15.7352 11.8687 14.7975C10.931 13.8598 9.65925 13.333 8.33317 13.333C7.00709 13.333 5.73532 13.8598 4.79764 14.7975C3.85995 15.7352 3.33317 17.0069 3.33317 18.333H1.6665ZM8.33317 10.833C5.57067 10.833 3.33317 8.59551 3.33317 5.83301C3.33317 3.07051 5.57067 0.833008 8.33317 0.833008C11.0957 0.833008 13.3332 3.07051 13.3332 5.83301C13.3332 8.59551 11.0957 10.833 8.33317 10.833ZM8.33317 9.16634C10.1748 9.16634 11.6665 7.67467 11.6665 5.83301C11.6665 3.99134 10.1748 2.49967 8.33317 2.49967C6.4915 2.49967 4.99984 3.99134 4.99984 5.83301C4.99984 7.67467 6.4915 9.16634 8.33317 9.16634ZM15.2365 12.2522C16.4077 12.7794 17.4017 13.6338 18.0989 14.7126C18.7961 15.7914 19.1668 17.0486 19.1665 18.333H17.4998C17.5001 17.3696 17.2221 16.4267 16.6992 15.6176C16.1763 14.8085 15.4308 14.1676 14.5523 13.7722L15.2365 12.2522ZM14.6632 2.84384C15.5028 3.18992 16.2206 3.77762 16.7257 4.53237C17.2307 5.28711 17.5002 6.17487 17.4998 7.08301C17.5 8.22656 17.0727 9.32887 16.3017 10.1735C15.5308 11.0181 14.472 11.544 13.3332 11.648V9.97051C13.9506 9.88207 14.5235 9.59802 14.9676 9.16006C15.4117 8.72209 15.7037 8.15328 15.8008 7.53712C15.8979 6.92096 15.7948 6.28992 15.5068 5.73664C15.2188 5.18335 14.761 4.73696 14.2007 4.46301L14.6632 2.84384Z"/>
    </symbol>

    <symbol id = '' viewBox = "0 0 20 20">

    </symbol>

    <symbol id = '' viewBox = "0 0 20 20">

    </symbol>

    <symbol id = '' viewBox = "0 0 20 20">

    </symbol>
</svg>