<svg class="border shadow-md dark:border-slate-700" viewBox="0 0 733.04 733.04" style="width: 733.04px; height: 733.04px;" xmlns="http://www.w3.org/2000/svg" preserveAspectRatio="none"><rect class="bg" id="bg" x="0" y="0" width="733.04" height="733.04" fill="#ffffff"/><g><path d="M 0 -105.72V -42.288000000000004 H 36.652 V -148.00799999999998 H 73.304 V -84.576 H 109.956 V -105.72 H 146.608 V -148.00799999999998 H 183.26 V -63.432 H 219.912 V -63.432 H 256.564 V -148.00799999999998 H 293.216 V -105.72 H 329.868 V -169.152 H 366.52 V -84.576 H 403.172 V -126.864 H 439.824 V -84.576 H 476.476 V -105.72 H 513.128 V -105.72 H 549.78 V -105.72 H 586.432 V -169.152 H 623.0840000000001 V -84.576 H 659.736 V -148.00799999999998 H 696.388 V -84.576 H 733.04 V 734.04 H 0 V -105.72 Z" fill="#2D2D2D"/></g><g><path d="M 0 0V -63.431999999999995 H 36.652 V 21.144 H 73.304 V 0 H 109.956 V 0 H 146.608 V 0 H 183.26 V 0 H 219.912 V -21.144 H 256.564 V 0 H 293.216 V 21.144 H 329.868 V -21.144 H 366.52 V 42.288 H 403.172 V 0 H 439.824 V 0 H 476.476 V 21.144 H 513.128 V 42.288 H 549.78 V 21.144 H 586.432 V 21.144 H 623.0840000000001 V 21.144 H 659.736 V 0 H 696.388 V -21.144 H 733.04 V 734.04 H 0 V 0 Z" fill="#282828"/></g><g><path d="M 0 105.72V 84.576 H 36.652 V 105.72 H 73.304 V 126.864 H 109.956 V 42.288000000000004 H 146.608 V 84.576 H 183.26 V 42.288000000000004 H 219.912 V 169.152 H 256.564 V 105.72 H 293.216 V 148.00799999999998 H 329.868 V 105.72 H 366.52 V 105.72 H 403.172 V 42.288000000000004 H 439.824 V 84.576 H 476.476 V 126.864 H 513.128 V 148.00799999999998 H 549.78 V 84.576 H 586.432 V 42.288000000000004 H 623.0840000000001 V 105.72 H 659.736 V 126.864 H 696.388 V 126.864 H 733.04 V 734.04 H 0 V 105.72 Z" fill="#232323"/></g><g><path d="M 0 211.44V 148.008 H 36.652 V 169.152 H 73.304 V 253.728 H 109.956 V 211.44 H 146.608 V 232.584 H 183.26 V 148.008 H 219.912 V 211.44 H 256.564 V 274.872 H 293.216 V 274.872 H 329.868 V 253.728 H 366.52 V 190.296 H 403.172 V 211.44 H 439.824 V 169.152 H 476.476 V 274.872 H 513.128 V 190.296 H 549.78 V 169.152 H 586.432 V 232.584 H 623.0840000000001 V 274.872 H 659.736 V 274.872 H 696.388 V 274.872 H 733.04 V 734.04 H 0 V 211.44 Z" fill="#1e1e1e"/></g><g><path d="M 0 317.15999999999997V 359.448 H 36.652 V 338.304 H 73.304 V 380.592 H 109.956 V 359.448 H 146.608 V 380.592 H 183.26 V 253.72799999999998 H 219.912 V 380.592 H 256.564 V 380.592 H 293.216 V 380.592 H 329.868 V 380.592 H 366.52 V 338.304 H 403.172 V 317.15999999999997 H 439.824 V 317.15999999999997 H 476.476 V 317.15999999999997 H 513.128 V 274.87199999999996 H 549.78 V 338.304 H 586.432 V 317.15999999999997 H 623.0840000000001 V 296.01599999999996 H 659.736 V 253.72799999999998 H 696.388 V 359.448 H 733.04 V 734.04 H 0 V 317.15999999999997 Z" fill="#191919"/></g><g><path d="M 0 422.88V 380.592 H 36.652 V 401.736 H 73.304 V 465.168 H 109.956 V 486.312 H 146.608 V 486.312 H 183.26 V 422.88 H 219.912 V 444.024 H 256.564 V 465.168 H 293.216 V 486.312 H 329.868 V 444.024 H 366.52 V 359.448 H 403.172 V 465.168 H 439.824 V 444.024 H 476.476 V 422.88 H 513.128 V 380.592 H 549.78 V 465.168 H 586.432 V 422.88 H 623.0840000000001 V 486.312 H 659.736 V 401.736 H 696.388 V 359.448 H 733.04 V 734.04 H 0 V 422.88 Z" fill="#141414"/></g><g><path d="M 0 528.6V 528.6 H 36.652 V 528.6 H 73.304 V 465.168 H 109.956 V 592.032 H 146.608 V 528.6 H 183.26 V 465.168 H 219.912 V 528.6 H 256.564 V 528.6 H 293.216 V 465.168 H 329.868 V 486.312 H 366.52 V 528.6 H 403.172 V 528.6 H 439.824 V 528.6 H 476.476 V 507.456 H 513.128 V 507.456 H 549.78 V 570.888 H 586.432 V 549.744 H 623.0840000000001 V 570.888 H 659.736 V 528.6 H 696.388 V 507.456 H 733.04 V 734.04 H 0 V 528.6 Z" fill="#0f0f0f"/></g><g><path d="M 0 634.3199999999999V 655.4639999999999 H 36.652 V 697.752 H 73.304 V 676.608 H 109.956 V 697.752 H 146.608 V 592.0319999999999 H 183.26 V 697.752 H 219.912 V 676.608 H 256.564 V 613.1759999999999 H 293.216 V 697.752 H 329.868 V 613.1759999999999 H 366.52 V 634.3199999999999 H 403.172 V 676.608 H 439.824 V 592.0319999999999 H 476.476 V 676.608 H 513.128 V 613.1759999999999 H 549.78 V 592.0319999999999 H 586.432 V 634.3199999999999 H 623.0840000000001 V 676.608 H 659.736 V 676.608 H 696.388 V 697.752 H 733.04 V 734.04 H 0 V 634.3199999999999 Z" fill="#0a0a0a"/></g></svg>