<svg class="border shadow-md dark:border-slate-700" viewBox="0 0 1091.2 613.8" style="width: 1091.2px; height: 613.8px;" xmlns="http://www.w3.org/2000/svg" preserveAspectRatio="none"><rect class="bg" id="bg" x="0" y="0" width="1091.2" height="613.8" fill="#ffffff"/><g transform="rotate(0 545.6 306.9)"><path id="-1" d="M -645.60 -31.38 S -467.00 -62.07&#xA;            0.00 -31.38 312.80 -62.07&#xA;            645.60 -31.38 958.40 -62.07&#xA;            1291.20 -31.38 1524.80 -91.38&#xA;            1936.80 -31.38 h 110 V 813.8 H -645.60 Z" fill="#282828"/><path id="0" d="M -645.60 30.00 S -332.80 -0.69&#xA;            0.00 30.00 312.80 -28.00&#xA;            645.60 30.00 958.40 -15.00&#xA;            1291.20 30.00 1604.00 -0.69&#xA;            1936.80 30.00 h 110 V 813.8 H -645.60 Z" fill="#262626"/><path id="1" d="M -645.60 91.38 S -332.80 60.69&#xA;            0.00 91.38 308.60 60.69&#xA;            645.60 91.38 958.40 60.69&#xA;            1291.20 91.38 1604.00 60.69&#xA;            1936.80 91.38 h 110 V 813.8 H -645.60 Z" fill="#242424"/><path id="2" d="M -645.60 152.76 S -332.80 122.07&#xA;            0.00 152.76 229.60 103.76&#xA;            645.60 152.76 837.20 95.76&#xA;            1291.20 152.76 1604.00 121.76&#xA;            1936.80 152.76 h 110 V 813.8 H -645.60 Z" fill="#222222"/><path id="3" d="M -645.60 214.14 S -332.80 183.45&#xA;            0.00 214.14 101.60 183.45&#xA;            645.60 214.14 936.20 183.45&#xA;            1291.20 214.14 1604.00 183.45&#xA;            1936.80 214.14 h 110 V 813.8 H -645.60 Z" fill="#202020"/><path id="4" d="M -645.60 275.52 S -332.80 244.83&#xA;            0.00 275.52 312.80 244.83&#xA;            645.60 275.52 674.20 244.83&#xA;            1291.20 275.52 1427.80 244.83&#xA;            1936.80 275.52 h 110 V 813.8 H -645.60 Z" fill="#1e1e1e"/><path id="5" d="M -645.60 336.90 S -562.00 278.90&#xA;            0.00 336.90 312.80 306.21&#xA;            645.60 336.90 958.40 306.21&#xA;            1291.20 336.90 1604.00 306.21&#xA;            1936.80 336.90 h 110 V 813.8 H -645.60 Z" fill="#1c1c1c"/><path id="6" d="M -645.60 398.28 S -332.80 367.59&#xA;            0.00 398.28 312.80 341.28&#xA;            645.60 398.28 958.40 361.28&#xA;            1291.20 398.28 1604.00 367.59&#xA;            1936.80 398.28 h 110 V 813.8 H -645.60 Z" fill="#1a1a1a"/><path id="7" d="M -645.60 459.66 S -332.80 428.97&#xA;            0.00 459.66 312.80 428.97&#xA;            645.60 459.66 958.40 411.66&#xA;            1291.20 459.66 1604.00 428.97&#xA;            1936.80 459.66 h 110 V 813.8 H -645.60 Z" fill="#181818"/><path id="8" d="M -645.60 521.04 S -332.80 490.35&#xA;            0.00 521.04 246.60 490.35&#xA;            645.60 521.04 958.40 469.04&#xA;            1291.20 521.04 1604.00 490.35&#xA;            1936.80 521.04 h 110 V 813.8 H -645.60 Z" fill="#161616"/><path id="9" d="M -645.60 582.42 S -547.00 548.42&#xA;            0.00 582.42 312.80 546.42&#xA;            645.60 582.42 958.40 536.42&#xA;            1291.20 582.42 1604.00 551.73&#xA;            1936.80 582.42 h 110 V 813.8 H -645.60 Z" fill="#141414"/></g></svg>